<?xml version="1.0" encoding="UTF-8" standalone="no"?>
<svg width="15px" height="12px" viewBox="0 0 15 12" version="1.1" xmlns="http://www.w3.org/2000/svg" xmlns:xlink="http://www.w3.org/1999/xlink">
    <!-- Generator: Sketch 3.7.2 (28276) - http://www.bohemiancoding.com/sketch -->
    <title>Group</title>
    <desc>Created with Sketch.</desc>
    <defs>
        <path d="M14.98,0.4644 C14.94,0.8224 14.791,1.1671 14.537,1.4401 L8.604,7.769 C7.996,8.4167 7.004,8.4167 6.396,7.769 L0.4631,1.4401 C0.2071,1.1671 0.0588,0.8207 0.0198,0.4644 C0.012,0.5327 0.0073,0.601 0.0073,0.6709 L0.0073,9.3291 C0.0073,10.2449 0.7098,10.9941 1.5683,10.9941 L13.432,10.9941 C14.29,10.9941 14.993,10.2449 14.993,9.3291 L14.993,0.6709 C14.993,0.601 14.988,0.5327 14.98,0.4644 L14.98,0.4644 Z" id="path-1"></path>
        <path d="M8.604,7.5568 L14.824,0.9216 C14.567,0.3788 14.037,0.0059 13.432,0.0059 L1.5683,0.0059 C0.9626,0.0059 0.4335,0.3788 0.1759,0.9216 L6.396,7.5568 C7.004,8.2045 7.996,8.2045 8.604,7.5568 L8.604,7.5568 Z" id="path-3"></path>
    </defs>
    <g id="Page-1" stroke="none" stroke-width="1" fill="none" fill-rule="evenodd">
        <g id="popup" transform="translate(-2748.000000, -23.000000)">
            <g id="Group" transform="translate(2748.000000, 23.000000)">
                <g id="Group-81" transform="translate(0.000000, 1.000000)">
                    <mask id="mask-2" fill="white">
                        <use xlink:href="#path-1"></use>
                    </mask>
                    <g id="Clip-80"></g>
                    <polygon id="Fill-79" fill="#FFD2CA" mask="url(#mask-2)" points="-4.9927 -4.5356 19.993 -4.5356 19.993 15.9941 -4.9927 15.9941"></polygon>
                </g>
                <g id="Group-84">
                    <mask id="mask-4" fill="white">
                        <use xlink:href="#path-3"></use>
                    </mask>
                    <g id="Clip-83"></g>
                    <polygon id="Fill-82" fill="#FFD2CA" mask="url(#mask-4)" points="-4.8241 -4.9941 19.824 -4.9941 19.824 13.0426 -4.8241 13.0426"></polygon>
                </g>
            </g>
        </g>
    </g>
</svg>