<?xml version="1.0" encoding="UTF-8" standalone="no"?>
<svg width="20px" height="21px" viewBox="0 0 20 21" version="1.1" xmlns="http://www.w3.org/2000/svg" xmlns:xlink="http://www.w3.org/1999/xlink">
    <!-- Generator: Sketch 3.7.2 (28276) - http://www.bohemiancoding.com/sketch -->
    <title>Group 52</title>
    <desc>Created with Sketch.</desc>
    <defs>
        <path d="M17.2,3.9 L15.2,3.9 C14.9,3.1 14.5,2.2 13.8,1.5 C12.8,0.5 11.6,0 10,0 C8.5,0 7.2,0.5 6.2,1.5 C5.5,2.2 5.1,3 4.8,3.9 L2.8,3.9 C1.3,3.9 0,5.2 0,6.7 L0,13.7 C0,14.1 0.3,14.4 0.7,14.4 C1.1,14.4 1.4,14.1 1.4,13.7 L1.4,6.7 C1.4,5.9 2,5.3 2.8,5.3 L4.4,5.3 C4.2,6.1 4.2,6.8 4.2,7.4 C3.9,7.6 3.7,8 3.7,8.3 C3.7,8.9 4.2,9.5 4.9,9.5 C5.5,9.5 6.1,9 6.1,8.3 C6.1,7.9 5.9,7.6 5.6,7.4 C5.6,7 5.7,6.5 5.7,6 C5.7,5.8 5.8,5.6 5.8,5.4 L14.1,5.4 C14.3,6.2 14.3,7 14.4,7.5 C14.1,7.7 13.9,8.1 13.9,8.4 C13.9,9 14.4,9.6 15.1,9.6 C15.7,9.6 16.3,9.1 16.3,8.4 C16.3,8 16.1,7.7 15.8,7.5 C15.8,7 15.7,6.3 15.6,5.4 L17.3,5.4 C18.1,5.4 18.7,6 18.7,6.8 L18.7,17.4 C18.7,18.2 18.1,18.8 17.3,18.8 L2.8,18.8 C2,18.8 1.4,18.2 1.4,17.4 C1.4,17 1.1,16.7 0.7,16.7 C0.3,16.7 0,17 0,17.4 C0,18.9 1.3,20.2 2.8,20.2 L17.2,20.2 C18.7,20.2 20,19 20,17.4 L20,6.8 C20,5.2 18.8,3.9 17.2,3.9 L17.2,3.9 Z M6.3,3.9 C6.5,3.4 6.8,2.9 7.2,2.5 C7.9,1.8 8.8,1.4 10,1.4 C11.2,1.4 12.1,1.8 12.8,2.5 C13.2,2.9 13.5,3.4 13.7,3.9 L6.3,3.9 L6.3,3.9 Z" id="path-1"></path>
    </defs>
    <g id="Page-1" stroke="none" stroke-width="1" fill="none" fill-rule="evenodd">
        <g id="popup" transform="translate(-2670.000000, -21.000000)">
            <g id="Group-52" transform="translate(2670.000000, 21.000000)">
                <mask id="mask-2" fill="white">
                    <use xlink:href="#path-1"></use>
                </mask>
                <g id="Clip-51"></g>
                <polygon id="Fill-50" fill="#2BA79E" mask="url(#mask-2)" points="-5 -5 25 -5 25 25.2 -5 25.2"></polygon>
            </g>
        </g>
    </g>
</svg>