<?xml version="1.0" encoding="UTF-8" standalone="no"?>
<svg width="15px" height="14px" viewBox="0 0 15 14" version="1.1" xmlns="http://www.w3.org/2000/svg" xmlns:xlink="http://www.w3.org/1999/xlink">
    <!-- Generator: Sketch 3.7.2 (28276) - http://www.bohemiancoding.com/sketch -->
    <title>Group 586</title>
    <desc>Created with Sketch.</desc>
    <defs>
        <path d="M13.925,12.7071 L8.218,7 L13.925,1.2928 C14.073,1.1449 14.147,0.9512 14.147,0.7574 C14.147,0.5636 14.073,0.3697 13.925,0.2218 C13.629,-0.0739 13.15,-0.0739 12.854,0.2218 L7.147,5.9289 L1.44,0.2218 C1.144,-0.0739 0.665,-0.0739 0.369,0.2218 C0.073,0.5176 0.073,0.9971 0.369,1.2929 L6.076,7 L0.369,12.7071 C0.073,13.0028 0.073,13.4823 0.369,13.7782 C0.665,14.0739 1.144,14.0739 1.44,13.7782 L7.147,8.071 L12.854,13.7782 C13.002,13.9261 13.196,14 13.389,14 C13.583,14 13.777,13.9261 13.925,13.7782 C14.221,13.4824 14.221,13.0028 13.925,12.7071 L13.925,12.7071 Z" id="path-1"></path>
    </defs>
    <g id="Page-1" stroke="none" stroke-width="1" fill="none" fill-rule="evenodd">
        <g id="popup" transform="translate(-2802.000000, -20.000000)">
            <g id="Group-586" transform="translate(2802.000000, 20.000000)">
                <mask id="mask-2" fill="white">
                    <use xlink:href="#path-1"></use>
                </mask>
                <g id="Clip-585"></g>
                <polygon id="Fill-584" fill="#666666" mask="url(#mask-2)" points="-4.853 -5 19.147 -5 19.147 19 -4.853 19"></polygon>
            </g>
        </g>
    </g>
</svg>